<svg xmlns="http://www.w3.org/2000/svg" xmlns:xlink="http://www.w3.org/1999/xlink" width="474" height="137.543" viewBox="0 0 474 137.543">
  <defs>
    <filter id="Exclusion_2" x="0" y="0" width="474" height="137.543" filterUnits="userSpaceOnUse">
      <feOffset dx="-1" dy="-3" input="SourceAlpha"/>
      <feGaussianBlur stdDeviation="10" result="blur"/>
      <feFlood flood-color="#a2bbc5" flood-opacity="0.2"/>
      <feComposite operator="in" in2="blur"/>
      <feComposite in="SourceGraphic"/>
    </filter>
  </defs>
  <g transform="matrix(1, 0, 0, 1, 0, 0)" filter="url(#Exclusion_2)">
    <path id="Exclusion_2-2" data-name="Exclusion 2" d="M-2926,39.994h-414V-25.5a11.923,11.923,0,0,1,3.514-8.486A11.921,11.921,0,0,1-3328-37.5h162.176A37.642,37.642,0,0,0-3169-22.506a36.041,36.041,0,0,0,36,36,36.041,36.041,0,0,0,36-36,38.889,38.889,0,0,0-3.062-14.994H-2938a11.921,11.921,0,0,1,8.485,3.515A11.923,11.923,0,0,1-2926-25.5V39.993Zm-207.076-77.466-8.865-.029h26.6c-7.739.011-16.069.026-17.661.029Zm33.014-.029h-15.278c5.572-.008,10.039-.012,12.623-.012,1.742,0,2.634,0,2.652.006h0l0,0Zm-42.53,0h-23.232l.013-.03,0-.007c.015-.008.9-.012,2.623-.012,4.442,0,13.651.025,20.593.047Z" transform="translate(3371 70.55)" fill="#fff"/>
  </g>
</svg>
